{"title":"Shes.The.Boss.2.XXX.DVDRip.XviD","uid":9038011,"size":1459461792,"categoryP":"porn","categoryS":"movies","magnet":"?xt=urn:btih:4768625456d0bc9fc6097fd7feaedd5218b739f4&amp;dn=Shes.The.Boss.2.XXX.DVDRip.XviD&amp;tr=udp%3A%2F%2Ftracker.openbittorrent.com%3A80&amp;tr=udp%3A%2F%2Fopen.demonii.com%3A1337&amp;tr=udp%3A%2F%2Ftracker.coppersurfer.tk%3A6969&amp;tr=udp%3A%2F%2Fexodus.desync.com%3A6969","seeders":0,"leechers":1,"uploader":null,"files":3,"time":1381552529,"description":" &lt;a href=&quot;http://bayimg.com/haAJCAafn&quot; rel=&quot;nofollow&quot; target=&quot;_NEW&quot;&gt;http://bayimg.com/haAJCAafn&lt;/a&gt;\n &lt;a href=&quot;\nhttp://bayimg.com/haAjdaAfN&quot; rel=&quot;nofollow&quot; target=&quot;_NEW&quot;&gt;\nhttp://bayimg.com/haAjdaAfN&lt;/a&gt;\n\nShe's The Boss # 2 adult DVD Product Description\n\nShe's The Boss # 2 For men who love a woman on top! She's The Boss 2 stars porn superstar, Alexis Texas, in control and in charge. Also featuring Tori Black, Jada Fire, Rebeca Linares, and Hillary Scott. Do not miss these beautiful executives ordering their employees to satisfy their every whim!\n\n\n\nVideo\nFormat: MPEG-4 Visual\nFormat profile: Streaming Video@L1\nFormat settings, BVOP: Yes\nFormat settings, QPel: No\nFormat settings, GMC: No warppoints\nFormat settings, Matrix: Default\nCodec ID: XVID\nCodec ID/Hint: XviD\nDuration: 1h 9mn\nBit rate: 1 258 Kbps\nWidth: 512 pixels\nHeight: 288 pixels\nDisplay aspect ratio: 16/9\nFrame rate: 29.970 fps\nResolution: 24 bits\nColorimetry: 4:2:0\nScan type: Progressive\nBits/(Pixel*Frame): 0.285\nStream size: 630 MiB (90%)\nWriting library: XviD 1.1.2 (UTC 2006-11-01)\n\nAudio\nFormat: MPEG Audio\nFormat version: Version 1\nFormat profile: Layer 3\nCodec ID: 55\nCodec ID/Hint: MP3\nDuration: 1h 9mn\nBit rate mode: Variable\nBit rate: 125 Kbps\nChannel(s): 2 channels\nSampling rate: 48.0 KHz\nResolution: 16 bits\nStream size: 62.6 MiB (9%)\nAlignment: Aligned on interleaves\nInterleave, duration: 24 ms (0.72 video frame)\nInterleave, preload duration: 470 ms ","torrent":{"xt":"urn:btih:4768625456d0bc9fc6097fd7feaedd5218b739f4","amp;dn":"Shes.The.Boss.2.XXX.DVDRip.XviD","amp;tr":["udp%3A%2F%2Ftracker.openbittorrent.com%3A80","udp%3A%2F%2Fopen.demonii.com%3A1337","udp%3A%2F%2Ftracker.coppersurfer.tk%3A6969","udp%3A%2F%2Fexodus.desync.com%3A6969"],"infoHash":"4768625456d0bc9fc6097fd7feaedd5218b739f4","infoHashBuffer":{"type":"Buffer","data":[71,104,98,84,86,208,188,159,198,9,127,215,254,174,221,82,24,183,57,244]},"announce":[],"urlList":[]}}